<svg width="129" height="48" viewBox="0 0 129 48" fill="none" xmlns="http://www.w3.org/2000/svg">
<path d="M119.585 0.420013C121.265 0.420013 122.585 0.840014 123.545 1.68002C124.545 2.48001 125.045 3.60001 125.045 5.04001C125.045 6.48001 124.545 7.62001 123.545 8.46001C122.585 9.26001 121.265 9.66001 119.585 9.66001C117.905 9.66001 116.565 9.26001 115.565 8.46001C114.605 7.62001 114.125 6.48001 114.125 5.04001C114.125 3.60001 114.605 2.48001 115.565 1.68002C116.565 0.840014 117.905 0.420013 119.585 0.420013ZM124.265 15.24V41.34C124.265 43.02 124.545 44.16 125.105 44.76C125.705 45.36 126.705 45.66 128.105 45.66V46.92C127.385 46.88 126.265 46.84 124.745 46.8C123.225 46.72 121.685 46.68 120.125 46.68C118.565 46.68 116.985 46.72 115.385 46.8C113.785 46.84 112.585 46.88 111.785 46.92V45.66C113.185 45.66 114.165 45.36 114.725 44.76C115.325 44.16 115.625 43.02 115.625 41.34V22.44C115.625 20.64 115.345 19.32 114.785 18.48C114.265 17.6 113.265 17.16 111.785 17.16V15.9C113.065 16.02 114.305 16.08 115.505 16.08C117.185 16.08 118.745 16.02 120.185 15.9C121.665 15.74 123.025 15.52 124.265 15.24Z" fill="black"/>
<path d="M101.819 15.06C103.379 15.06 104.799 15.24 106.079 15.6C107.399 15.92 108.479 16.34 109.319 16.86C110.359 17.5 111.159 18.3 111.719 19.26C112.319 20.18 112.619 21.26 112.619 22.5C112.619 23.9 112.179 25.06 111.299 25.98C110.419 26.86 109.279 27.3 107.879 27.3C106.479 27.3 105.359 26.9 104.519 26.1C103.679 25.3 103.259 24.22 103.259 22.86C103.259 21.58 103.659 20.52 104.459 19.68C105.259 18.8 106.179 18.22 107.219 17.94C106.899 17.54 106.419 17.2 105.779 16.92C105.139 16.64 104.419 16.5 103.619 16.5C102.379 16.5 101.279 16.86 100.319 17.58C99.399 18.3 98.619 19.3 97.979 20.58C97.339 21.86 96.839 23.36 96.479 25.08C96.159 26.8 95.999 28.68 95.999 30.72C95.999 33.8 96.379 36.22 97.139 37.98C97.939 39.74 98.939 40.98 100.139 41.7C101.379 42.42 102.659 42.78 103.979 42.78C104.739 42.78 105.559 42.66 106.439 42.42C107.359 42.18 108.279 41.7 109.199 40.98C110.159 40.26 111.039 39.24 111.839 37.92L112.859 38.28C112.419 39.76 111.699 41.24 110.699 42.72C109.699 44.2 108.399 45.42 106.799 46.38C105.199 47.3 103.239 47.76 100.919 47.76C98.319 47.76 95.959 47.2 93.839 46.08C91.759 44.92 90.079 43.16 88.799 40.8C87.559 38.4 86.939 35.32 86.939 31.56C86.939 27.96 87.579 24.94 88.859 22.5C90.179 20.02 91.959 18.16 94.199 16.92C96.439 15.68 98.979 15.06 101.819 15.06Z" fill="black"/>
<path d="M74.5839 15.06C76.2639 15.06 77.7239 15.28 78.9639 15.72C80.2439 16.12 81.1639 16.52 81.7239 16.92C83.0839 17.84 83.9239 17.24 84.2439 15.12H85.5039C85.4239 16.24 85.3639 17.62 85.3239 19.26C85.2839 20.86 85.2639 23 85.2639 25.68H84.0039C83.8039 24.2 83.4239 22.74 82.8639 21.3C82.3039 19.86 81.4839 18.68 80.4039 17.76C79.3639 16.84 78.0039 16.38 76.3239 16.38C75.1639 16.38 74.1839 16.72 73.3839 17.4C72.5839 18.04 72.1839 18.98 72.1839 20.22C72.1839 21.42 72.5439 22.48 73.2639 23.4C73.9839 24.28 74.9039 25.14 76.0239 25.98C77.1839 26.78 78.3839 27.64 79.6239 28.56C80.9439 29.56 82.1439 30.56 83.2239 31.56C84.3039 32.52 85.1639 33.58 85.8039 34.74C86.4439 35.9 86.7639 37.28 86.7639 38.88C86.7639 40.68 86.2439 42.26 85.2039 43.62C84.1639 44.94 82.7839 45.96 81.0639 46.68C79.3839 47.4 77.5039 47.76 75.4239 47.76C74.2239 47.76 73.1439 47.64 72.1839 47.4C71.2639 47.16 70.4639 46.86 69.7839 46.5C69.2639 46.26 68.7639 46.04 68.2839 45.84C67.8439 45.6 67.4239 45.4 67.0239 45.24C66.6239 45.12 66.2639 45.26 65.9439 45.66C65.6639 46.06 65.4439 46.62 65.2839 47.34H64.0239C64.1039 46.06 64.1639 44.5 64.2039 42.66C64.2439 40.82 64.2639 38.38 64.2639 35.34H65.5239C65.7639 37.5 66.2039 39.42 66.8439 41.1C67.4839 42.74 68.3439 44.04 69.4239 45C70.5439 45.92 71.9439 46.38 73.6239 46.38C74.3039 46.38 74.9639 46.24 75.6039 45.96C76.2439 45.68 76.7639 45.22 77.1639 44.58C77.6039 43.94 77.8239 43.12 77.8239 42.12C77.8239 40.36 77.2439 38.9 76.0839 37.74C74.9639 36.58 73.5239 35.32 71.7639 33.96C70.4839 32.92 69.2639 31.9 68.1039 30.9C66.9839 29.86 66.0639 28.74 65.3439 27.54C64.6239 26.3 64.2639 24.9 64.2639 23.34C64.2639 21.54 64.7439 20.02 65.7039 18.78C66.6639 17.54 67.9239 16.62 69.4839 16.02C71.0839 15.38 72.7839 15.06 74.5839 15.06Z" fill="black"/>
<path d="M44.1294 47.34C42.3294 47.34 40.8294 47 39.6294 46.32C38.4294 45.64 37.5494 44.74 36.9894 43.62C36.4294 42.46 36.1494 41.2 36.1494 39.84C36.1494 38.12 36.5294 36.72 37.2894 35.64C38.0894 34.56 39.1094 33.68 40.3494 33C41.5894 32.32 42.8894 31.76 44.2494 31.32C45.6494 30.88 46.9694 30.46 48.2094 30.06C49.4894 29.62 50.5094 29.12 51.2694 28.56C52.0694 27.96 52.4694 27.2 52.4694 26.28V21.6C52.4694 20.56 52.2894 19.64 51.9294 18.84C51.6094 18 51.0894 17.36 50.3694 16.92C49.6894 16.48 48.7894 16.26 47.6694 16.26C46.8694 16.26 46.0694 16.38 45.2694 16.62C44.4694 16.82 43.8094 17.18 43.2894 17.7C44.4094 18.1 45.2694 18.72 45.8694 19.56C46.5094 20.36 46.8294 21.28 46.8294 22.32C46.8294 23.68 46.3494 24.76 45.3894 25.56C44.4694 26.36 43.3694 26.76 42.0894 26.76C40.6494 26.76 39.5494 26.32 38.7894 25.44C38.0694 24.52 37.7094 23.42 37.7094 22.14C37.7094 20.98 37.9894 20.02 38.5494 19.26C39.1494 18.5 39.9694 17.78 41.0094 17.1C42.1294 16.46 43.4694 15.96 45.0294 15.6C46.6294 15.24 48.3494 15.06 50.1894 15.06C52.0294 15.06 53.6894 15.26 55.1694 15.66C56.6494 16.02 57.8894 16.7 58.8894 17.7C59.8094 18.62 60.4094 19.76 60.6894 21.12C60.9694 22.44 61.1094 24.12 61.1094 26.16V42.48C61.1094 43.48 61.2094 44.18 61.4094 44.58C61.6094 44.94 61.9494 45.12 62.4294 45.12C62.7894 45.12 63.1294 45.02 63.4494 44.82C63.8094 44.62 64.1894 44.38 64.5894 44.1L65.1894 45.12C64.3494 45.84 63.3694 46.4 62.2494 46.8C61.1694 47.16 59.9494 47.34 58.5894 47.34C57.1094 47.34 55.9294 47.14 55.0494 46.74C54.1694 46.3 53.5294 45.72 53.1294 45C52.7694 44.28 52.5894 43.44 52.5894 42.48C51.6294 44 50.4694 45.2 49.1094 46.08C47.7494 46.92 46.0894 47.34 44.1294 47.34ZM48.3894 43.5C49.1894 43.5 49.9094 43.32 50.5494 42.96C51.2294 42.56 51.8694 41.92 52.4694 41.04V28.74C52.1094 29.34 51.6094 29.88 50.9694 30.36C50.3294 30.84 49.6494 31.34 48.9294 31.86C48.2094 32.34 47.5094 32.88 46.8294 33.48C46.1894 34.08 45.6694 34.82 45.2694 35.7C44.8694 36.58 44.6694 37.64 44.6694 38.88C44.6694 40.44 45.0094 41.6 45.6894 42.36C46.3694 43.12 47.2694 43.5 48.3894 43.5Z" fill="black"/>
<path d="M21.74 0C23.42 0 24.84 0.100001 26 0.300003C27.2 0.460001 28.22 0.7 29.06 1.02C29.9 1.34 30.66 1.72 31.34 2.16C32.02 2.56 32.6 3.12 33.08 3.84C33.56 4.56 33.8 5.36 33.8 6.24C33.8 7.64 33.32 8.76 32.36 9.6C31.4 10.44 30 10.86 28.16 10.86C26.4 10.86 25.02 10.46 24.02 9.66C23.02 8.82 22.52 7.7 22.52 6.3C22.52 5.26 22.86 4.36 23.54 3.6C24.26 2.8 25.24 2.22 26.48 1.86C26.08 1.62 25.52 1.44 24.8 1.32C24.12 1.16 23.38 1.08 22.58 1.08C20.74 1.08 19.18 1.48 17.9 2.28C16.66 3.08 15.66 4.16 14.9 5.52C14.34 6.52 13.92 7.78 13.64 9.3C13.4 10.82 13.28 13.04 13.28 15.96H20.42C22.5 15.96 24.28 15.94 25.76 15.9C27.24 15.86 28.56 15.8 29.72 15.72C30.92 15.6 32.1 15.44 33.26 15.24V41.34C33.26 43.02 33.58 44.16 34.22 44.76C34.86 45.36 35.94 45.66 37.46 45.66V46.92C36.66 46.88 35.46 46.84 33.86 46.8C32.3 46.72 30.72 46.68 29.12 46.68C27.56 46.68 25.98 46.72 24.38 46.8C22.78 46.84 21.58 46.88 20.78 46.92V45.66C22.18 45.66 23.16 45.36 23.72 44.76C24.32 44.16 24.62 43.02 24.62 41.34V22.44C24.62 20.64 24.32 19.32 23.72 18.48C23.12 17.6 22.02 17.16 20.42 17.16H13.28V41.34C13.28 43.06 13.7 44.22 14.54 44.82C15.38 45.38 16.56 45.66 18.08 45.66V46.92C17.16 46.88 15.86 46.84 14.18 46.8C12.54 46.72 10.86 46.68 9.13995 46.68C7.37995 46.68 5.69995 46.72 4.09995 46.8C2.49995 46.84 1.27995 46.88 0.439951 46.92V45.66C1.95995 45.66 3.03995 45.36 3.67995 44.76C4.31995 44.16 4.63995 43.02 4.63995 41.34V17.16H0.199951V15.96H4.63995C4.63995 13.44 5.03995 11.2 5.83995 9.24C6.63995 7.24 7.81995 5.5 9.37995 4.02C10.82 2.7 12.62 1.7 14.78 1.02C16.98 0.34 19.3 0 21.74 0Z" fill="black"/>
</svg>
