<svg width="164" height="44" viewBox="0 0 164 44" fill="none" xmlns="http://www.w3.org/2000/svg">
<path d="M155.103 1H163.743V43H155.103V1Z" fill="black"/>
<path d="M135.038 43.96C131.238 43.96 127.878 43.16 124.958 41.56C122.078 39.92 119.818 37.46 118.178 34.18C116.578 30.9 115.778 26.86 115.778 22.06C115.778 14.86 117.518 9.39998 120.998 5.67998C124.478 1.91998 129.218 0.039978 135.218 0.039978C139.978 0.039978 143.898 1.33998 146.978 3.93998C150.058 6.49998 151.898 10.22 152.498 15.1H143.558C143.198 12.82 142.258 11.1 140.738 9.93998C139.218 8.73998 137.378 8.13998 135.218 8.13998C128.218 8.13998 124.718 12.76 124.718 22C124.718 26.76 125.658 30.26 127.538 32.5C129.418 34.74 131.918 35.86 135.038 35.86C137.358 35.86 139.258 35.2 140.738 33.88C142.218 32.56 143.138 30.7 143.498 28.3H152.438C151.718 33.18 149.838 37.02 146.798 39.82C143.758 42.58 139.838 43.96 135.038 43.96Z" fill="black"/>
<path d="M98.3924 43.96C93.0324 43.96 88.7924 42.72 85.6724 40.24C82.5924 37.72 81.0324 34.26 80.9924 29.86H89.8124C89.8524 31.82 90.6324 33.38 92.1524 34.54C93.7124 35.7 95.7924 36.28 98.3924 36.28C100.632 36.28 102.412 35.78 103.732 34.78C105.092 33.74 105.772 32.36 105.772 30.64C105.772 29.16 105.292 28.02 104.332 27.22C103.372 26.42 101.852 25.88 99.7724 25.6L94.9124 25C90.6724 24.48 87.4924 23.2 85.3724 21.16C83.2924 19.08 82.2524 16.3 82.2524 12.82C82.2524 10.26 82.9124 8.01998 84.2324 6.09998C85.5524 4.17998 87.3924 2.69998 89.7524 1.65998C92.1524 0.579978 94.8924 0.039978 97.9724 0.039978C102.972 0.039978 106.892 1.15998 109.732 3.39998C112.572 5.63998 114.032 8.69998 114.112 12.58H105.352C105.272 11.02 104.572 9.79998 103.252 8.91998C101.972 8.03998 100.212 7.59998 97.9724 7.59998C95.9324 7.59998 94.2724 8.03998 92.9924 8.91998C91.7524 9.75998 91.1324 10.88 91.1324 12.28C91.1324 13.64 91.6524 14.7 92.6924 15.46C93.7324 16.18 95.3724 16.68 97.6124 16.96L102.112 17.5C110.512 18.58 114.712 22.76 114.712 30.04C114.712 32.84 114.052 35.3 112.732 37.42C111.452 39.5 109.572 41.12 107.092 42.28C104.652 43.4 101.752 43.96 98.3924 43.96Z" fill="black"/>
<path d="M56.1787 1H68.1786L83.1786 43H73.7587L70.1587 32.2H54.1387L50.5387 43H41.1187L56.1787 1ZM67.5187 24.34L62.1787 8.38L56.7787 24.34H67.5187Z" fill="black"/>
<path d="M30.9988 1H39.6388V43H30.9988V1Z" fill="black"/>
<path d="M0.97998 1H27.32V9.1H9.61998V17.56H27.32V25.66H9.61998V43H0.97998V1Z" fill="black"/>
</svg>
