<svg width="196" height="57" viewBox="0 0 196 57" fill="none" xmlns="http://www.w3.org/2000/svg">
<path d="M176.418 22.076V16.07H182.358V14.816C182.358 9.932 177.012 6.83 169.554 6.83C162.426 6.83 157.212 9.338 157.08 14.948V17.324H150.15V14.948C150.15 5.378 159.324 0.362 169.554 0.362C181.5 0.362 189.288 5.972 189.288 14.75V16.07H195.228V22.076H189.288V56H182.358V22.076H176.418Z" fill="black"/>
<path d="M127.709 47.816L131.339 52.832C130.151 54.218 126.983 56.726 121.703 56.726C113.981 56.726 109.691 51.446 109.691 44.384V33.824H117.347C121.571 33.824 121.967 30.656 121.967 27.62V22.076H104.741V16.07H184.337V22.076H162.359V28.742C163.811 27.488 165.857 26.432 168.695 26.432C175.295 26.432 180.575 31.778 180.575 38.642C180.575 46.1 175.229 50.918 167.243 50.918V44.45C171.005 44.384 173.315 41.876 173.315 38.51C173.315 35.276 170.807 32.966 167.573 32.966C165.263 32.966 163.349 34.352 162.359 36.266V56H155.429V49.202C153.779 50.456 151.469 51.314 148.499 51.314C142.229 51.314 136.949 46.628 136.223 40.358H116.621V43.46C116.621 47.09 117.611 50.192 121.703 50.192C125.069 50.192 127.049 48.476 127.709 47.816ZM149.423 32.636C145.793 32.636 143.483 35.474 143.483 38.906C143.483 42.338 145.925 45.044 149.423 45.044C153.185 45.044 155.429 42.206 155.429 38.906C155.429 35.738 152.987 32.636 149.423 32.636ZM128.897 28.478C128.897 30.524 128.633 32.372 128.039 33.89H137.147C139.061 29.402 143.483 26.432 148.499 26.432C151.469 26.432 153.779 27.422 155.429 28.808V22.076H128.897V28.478Z" fill="black"/>
<path d="M99.7831 56V22.076H93.8431V16.07H112.653V22.076H106.713V56H99.7831Z" fill="black"/>
<path d="M89.5666 56V48.146C87.4546 49.994 84.3526 51.248 80.5246 51.248C71.7466 51.248 65.0806 45.704 65.0806 37.982V31.382H70.4926C74.0566 31.382 76.1686 29.798 76.1686 26.828C76.1686 23.726 73.8586 22.076 70.6906 22.076H60.7246V16.07H102.437V22.076H96.4966V56H89.5666ZM89.5666 36.53V22.076H81.8446C82.7026 23.594 83.1646 25.376 83.1646 27.422C83.1646 33.56 78.5446 37.454 72.0766 37.454H71.9446C72.0766 41.81 75.1786 44.78 80.3926 44.78C85.9366 44.78 89.5666 41.546 89.5666 36.53Z" fill="black"/>
<path d="M31.4437 38.906C34.6777 38.906 37.1857 36.992 37.1857 32.372V22.076H25.6357V32.174C25.6357 36.926 28.2757 38.906 31.4437 38.906ZM44.1157 39.83V56H37.1857V43.394C35.7337 44.648 33.6877 45.44 31.0477 45.44C24.7777 45.44 18.7057 41.48 18.7057 32.042V22.076H13.5577V16.07H66.6877V22.076H44.1157V30.458C45.5677 29.006 47.7457 27.488 51.0457 27.488C57.7777 27.488 62.9257 32.9 62.9257 39.698C62.9257 47.222 57.7117 51.776 49.7917 51.908V45.44C53.3557 45.308 55.6657 42.932 55.6657 39.632C55.6657 36.332 53.2897 34.022 50.0557 34.022C46.6237 34.022 44.1157 36.992 44.1157 39.83Z" fill="black"/>
<path d="M0.680054 16.07H6.62005V14.75C6.62005 5.57599 15.3321 0.29599 27.0801 0.29599C37.6401 0.29599 47.8041 5.24599 47.8041 14.882V17.456H40.8741L40.8081 14.882C40.7421 9.33799 34.4061 6.76399 27.0801 6.76399C19.7541 6.76399 13.5501 9.73399 13.5501 14.882V16.07H19.4901V22.076H13.5501V56H6.62005V22.076H0.680054V16.07Z" fill="black"/>
</svg>
